{
	"asset":{
		"generator":"Khronos glTF Blender I/O v4.3.47",
		"version":"2.0"
	},
	"scene":0,
	"scenes":[
		{
			"name":"Scene",
			"nodes":[
				0
			]
		}
	],
	"nodes":[
		{
			"mesh":0,
			"name":"Icosphere"
		}
	],
	"meshes":[
		{
			"name":"Icosphere.003",
			"primitives":[
				{
					"attributes":{
						"POSITION":0,
						"NORMAL":1,
						"TEXCOORD_0":2
					},
					"indices":3
				}
			]
		}
	],
	"accessors":[
		{
			"bufferView":0,
			"componentType":5126,
			"count":36677,
			"max":[
				1.795218586921692,
				0.5999986529350281,
				0.19999992847442627
			],
			"min":[
				-0.32291293144226074,
				-0.6000013947486877,
				-0.20000004768371582
			],
			"type":"VEC3"
		},
		{
			"bufferView":1,
			"componentType":5126,
			"count":36677,
			"type":"VEC3"
		},
		{
			"bufferView":2,
			"componentType":5126,
			"count":36677,
			"type":"VEC2"
		},
		{
			"bufferView":3,
			"componentType":5123,
			"count":41562,
			"type":"SCALAR"
		}
	],
	"bufferViews":[
		{
			"buffer":0,
			"byteLength":440124,
			"byteOffset":0,
			"target":34962
		},
		{
			"buffer":0,
			"byteLength":440124,
			"byteOffset":440124,
			"target":34962
		},
		{
			"buffer":0,
			"byteLength":293416,
			"byteOffset":880248,
			"target":34962
		},
		{
			"buffer":0,
			"byteLength":83124,
			"byteOffset":1173664,
			"target":34963
		}
	],
	"buffers":[
		{
			"byteLength":1256788,
			"uri":"scene.bin"
		}
	]
}
