{
	"asset":{
		"generator":"Khronos glTF Blender I/O v4.3.47",
		"version":"2.0"
	},
	"scene":0,
	"scenes":[
		{
			"name":"Scene",
			"nodes":[
				0
			]
		}
	],
	"nodes":[
		{
			"mesh":0,
			"name":"Cylinder.001",
			"rotation":[
				0,
				0,
				-0.7071068286895752,
				0.7071068286895752
			],
			"scale":[
				0.5,
				0.5,
				0.5
			]
		}
	],
	"meshes":[
		{
			"name":"Cylinder.001",
			"primitives":[
				{
					"attributes":{
						"POSITION":0,
						"NORMAL":1,
						"TEXCOORD_0":2
					},
					"indices":3
				}
			]
		}
	],
	"textures" : [
        {
            "sampler" : 0,
            "source" : 0
        }
    ],
    "images" : [
        {
            "mimeType" : "image/png",
            "name" : "diffuse",
            "uri" : "baseColor.png"
        },
	{
	    "uri" : "metallicRoughness.png"
	}
    ],
	"accessors":[
		{
			"bufferView":0,
			"componentType":5126,
			"count":410,
			"max":[
				5.01603364944458,
				4.680931091308594,
				1
			],
			"min":[
				-5.016034126281738,
				-1.266936182975769,
				-1
			],
			"type":"VEC3"
		},
		{
			"bufferView":1,
			"componentType":5126,
			"count":410,
			"type":"VEC3"
		},
		{
			"bufferView":2,
			"componentType":5126,
			"count":410,
			"type":"VEC2"
		},
		{
			"bufferView":3,
			"componentType":5123,
			"count":804,
			"type":"SCALAR"
		}
	],
	"bufferViews":[
		{
			"buffer":0,
			"byteLength":4920,
			"byteOffset":0,
			"target":34962
		},
		{
			"buffer":0,
			"byteLength":4920,
			"byteOffset":4920,
			"target":34962
		},
		{
			"buffer":0,
			"byteLength":3280,
			"byteOffset":9840,
			"target":34962
		},
		{
			"buffer":0,
			"byteLength":1608,
			"byteOffset":13120,
			"target":34963
		}
	],
	"buffers":[
		{
			"byteLength":14728,
			"uri":"scene.bin"
		}
	]
}
