{
	"asset":{
		"generator":"Khronos glTF Blender I/O v4.3.47",
		"version":"2.0"
	},
	"scene":0,
	"scenes":[
		{
			"name":"Scene",
			"nodes":[
				0
			]
		}
	],
	"nodes":[
		{
			"mesh":0,
			"name":"Cylinder",
			"scale":[
				0.30000001192092896,
				0.800000011920929,
				0.30000001192092896
			]
		}
	],
	"meshes":[
		{
			"name":"Cylinder.001",
			"primitives":[
				{
					"attributes":{
						"POSITION":0,
						"NORMAL":1,
						"TEXCOORD_0":2
					},
					"indices":3
				}
			]
		}
	],
    "textures" : [
        {
            "sampler" : 0,
            "source" : 0
        }
    ],
    "images" : [
        {
            "mimeType" : "image/png",
            "name" : "diffuse",
            "uri" : "baseColor.png"
        },
	{
	    "uri" : "metallicRoughness.png"
	}
    ],
	"accessors":[
		{
			"bufferView":0,
			"componentType":5126,
			"count":230,
			"max":[
				1,
				1,
				1.1767511367797852
			],
			"min":[
				-1,
				-1,
				-7.323248863220215
			],
			"type":"VEC3"
		},
		{
			"bufferView":1,
			"componentType":5126,
			"count":230,
			"type":"VEC3"
		},
		{
			"bufferView":2,
			"componentType":5126,
			"count":230,
			"type":"VEC2"
		},
		{
			"bufferView":3,
			"componentType":5123,
			"count":444,
			"type":"SCALAR"
		}
	],
	"bufferViews":[
		{
			"buffer":0,
			"byteLength":2760,
			"byteOffset":0,
			"target":34962
		},
		{
			"buffer":0,
			"byteLength":2760,
			"byteOffset":2760,
			"target":34962
		},
		{
			"buffer":0,
			"byteLength":1840,
			"byteOffset":5520,
			"target":34962
		},
		{
			"buffer":0,
			"byteLength":888,
			"byteOffset":7360,
			"target":34963
		}
	],
	"buffers":[
		{
			"byteLength":8248,
			"uri":"scene.bin"
		}
	]
}
