{
	"asset":{
		"generator":"Khronos glTF Blender I/O v4.3.47",
		"version":"2.0"
	},
	"scene":0,
	"scenes":[
		{
			"name":"Scene",
			"nodes":[
				0
			]
		}
	],
	"nodes":[
		{
			"mesh":0,
			"name":"Cylinder.001",
			"rotation":[
				0,
				0,
				0.7071068286895752,
				0.7071068286895752
			],
			"scale":[
				0.25,
				0.625,
				0.25
			],
			"translation":[
				0,
				0.7999999523162842,
				0
			]
		}
	],
	"meshes":[
		{
			"name":"Cylinder.003",
			"primitives":[
				{
					"attributes":{
						"POSITION":0,
						"NORMAL":1,
						"TEXCOORD_0":2
					},
					"indices":3
				}
			]
		}
	],
	"textures" : [
        {
            "sampler" : 0,
            "source" : 0
        }
    ],
    "images" : [
        {
            "mimeType" : "image/png",
            "name" : "diffuse",
            "uri" : "baseColor.png"
        },
	{
	    "uri" : "metallicRoughness.png"
	}
    ],
	"accessors":[
		{
			"bufferView":0,
			"componentType":5126,
			"count":401,
			"max":[
				0.5,
				0.43908482789993286,
				1
			],
			"min":[
				-0.5,
				-1.9449150562286377,
				-1
			],
			"type":"VEC3"
		},
		{
			"bufferView":1,
			"componentType":5126,
			"count":401,
			"type":"VEC3"
		},
		{
			"bufferView":2,
			"componentType":5126,
			"count":401,
			"type":"VEC2"
		},
		{
			"bufferView":3,
			"componentType":5123,
			"count":798,
			"type":"SCALAR"
		}
	],
	"bufferViews":[
		{
			"buffer":0,
			"byteLength":4812,
			"byteOffset":0,
			"target":34962
		},
		{
			"buffer":0,
			"byteLength":4812,
			"byteOffset":4812,
			"target":34962
		},
		{
			"buffer":0,
			"byteLength":3208,
			"byteOffset":9624,
			"target":34962
		},
		{
			"buffer":0,
			"byteLength":1596,
			"byteOffset":12832,
			"target":34963
		}
	],
	"buffers":[
		{
			"byteLength":14428,
			"uri":"scene.bin"
		}
	]
}
