{
	"asset":{
		"generator":"Khronos glTF Blender I/O v4.3.47",
		"version":"2.0"
	},
	"scene":0,
	"scenes":[
		{
			"name":"Scene",
			"nodes":[
				0
			]
		}
	],
	"nodes":[
		{
			"mesh":0,
			"name":"Icosphere",
			"scale":[
				0.20000000298023224,
				0.20000000298023224,
				0.20000000298023224
			]
		}
	],
	"meshes":[
		{
			"name":"Icosphere",
			"primitives":[
				{
					"attributes":{
						"POSITION":0,
						"NORMAL":1,
						"TEXCOORD_0":2
					},
					"indices":3
				}
			]
		}
	],
	"textures" : [
        {
            "sampler" : 0,
            "source" : 0
        }
    ],
    "images" : [
        {
            "mimeType" : "image/png",
            "name" : "diffuse",
            "uri" : "baseColor.png"
        },
	{
	    "uri" : "metallicRoughness.png"
	}
    ],
	"accessors":[
		{
			"bufferView":0,
			"componentType":5126,
			"count":10040,
			"max":[
				5.230508327484131,
				3.1196820735931396,
				0.9999999403953552
			],
			"min":[
				-1.489491581916809,
				-3.1103179454803467,
				-0.9999999403953552
			],
			"type":"VEC3"
		},
		{
			"bufferView":1,
			"componentType":5126,
			"count":10040,
			"type":"VEC3"
		},
		{
			"bufferView":2,
			"componentType":5126,
			"count":10040,
			"type":"VEC2"
		},
		{
			"bufferView":3,
			"componentType":5123,
			"count":11238,
			"type":"SCALAR"
		}
	],
	"bufferViews":[
		{
			"buffer":0,
			"byteLength":120480,
			"byteOffset":0,
			"target":34962
		},
		{
			"buffer":0,
			"byteLength":120480,
			"byteOffset":120480,
			"target":34962
		},
		{
			"buffer":0,
			"byteLength":80320,
			"byteOffset":240960,
			"target":34962
		},
		{
			"buffer":0,
			"byteLength":22476,
			"byteOffset":321280,
			"target":34963
		}
	],
	"buffers":[
		{
			"byteLength":343756,
			"uri":"scene.bin"
		}
	]
}
